<mxfile host="app.diagrams.net" modified="2024-02-07T19:59:57.633Z" agent="Mozilla/5.0 (Macintosh; Intel Mac OS X 10_15_7) AppleWebKit/605.1.15 (KHTML, like Gecko) Version/16.6 Safari/605.1.15" version="22.1.21" etag="OsHd2kxjU6XGwEGIpe8v" type="github">
  <diagram name="StrÃ¡nka-1" id="7rNbZHGC1jmW6xSRubkY">
    <mxGraphModel>
      <root>
        <mxCell id="0" />
        <mxCell id="1" parent="0" />
      </root>
    </mxGraphModel>
  </diagram>
</mxfile>
